<?xml version="1.0" encoding="iso-8859-1"?>
<!-- Generator: Adobe Illustrator 19.0.0, SVG Export Plug-In . SVG Version: 6.00 Build 0)  -->
<svg version="1.1" id="Capa_1" xmlns="http://www.w3.org/2000/svg" xmlns:xlink="http://www.w3.org/1999/xlink" x="0px" y="0px"
	 viewBox="0 0 504.194 504.194" style="enable-background:new 0 0 504.194 504.194;" xml:space="preserve">
<circle style="fill:#4EBD9E;" cx="252.097" cy="252.062" r="252.062"/>
<path style="fill:#FFFFFF;" d="M466.349,234.732H223.74c-16.542,0-29.932,13.391-29.932,29.932v152.812
	c0,16.542,13.391,29.932,29.932,29.932h111.065l121.305,48.837v-48.837h10.24c16.542,0,29.932-13.391,29.932-29.932V264.665
	C496.282,248.123,482.891,234.732,466.349,234.732z"/>
<path style="fill:#183651;" d="M452.959,503.335l-119.729-48.049H223.74c-21.268,0-37.809-17.329-37.809-37.809V264.665
	c0-21.268,17.329-37.809,37.809-37.809h242.609c21.268,0,37.809,17.329,37.809,37.809v152.812c0,21.268-17.329,37.809-37.809,37.809
	h-2.363v40.96c0,2.363-1.575,4.726-3.151,6.302C458.472,504.123,455.322,504.911,452.959,503.335z M223.74,242.609
	c-12.603,0-22.055,10.24-22.055,22.055v152.812c0,12.603,10.24,22.055,22.055,22.055h111.065c0.788,0,2.363,0,3.151,0.788
	l110.277,44.111v-37.022c0-4.726,3.151-7.877,7.877-7.877h10.24c12.603,0,22.055-10.24,22.055-22.055V264.665
	c0-12.603-10.24-22.055-22.055-22.055H223.74z"/>
<polygon style="fill:#F05F50;" points="342.682,415.902 225.316,415.902 225.316,266.24 464.774,266.24 464.774,415.902 
	424.602,415.902 424.602,444.258 "/>
<path style="fill:#FFFFFF;" d="M45.722,7.877h304.049c20.48,0,37.809,16.542,37.809,37.809v191.409
	c0,20.48-16.542,37.809-37.809,37.809H210.349L58.325,355.249v-80.345H45.722c-20.48,0-37.809-16.542-37.809-37.809V45.686
	C7.912,24.418,24.454,7.877,45.722,7.877z"/>
<path style="fill:#183651;" d="M54.386,362.338c-2.363-1.575-3.938-3.938-3.938-7.089v-72.468h-4.726
	c-25.206,0-45.686-20.48-45.686-45.686V45.686C0.036,20.48,20.516,0,45.722,0h304.049c25.206,0,45.686,20.48,45.686,45.686v191.409
	c0,25.206-20.48,45.686-45.686,45.686H211.925L61.476,362.338C59.112,363.914,56.749,363.126,54.386,362.338z M45.722,15.754
	c-16.542,0-29.932,13.391-29.932,29.932v191.409c0,16.542,13.391,29.932,29.932,29.932h12.603c4.726,0,7.877,3.151,7.877,7.877
	v67.742l140.997-74.831c0.788-0.788,2.363-0.788,3.938-0.788h139.422c16.542,0,29.932-13.391,29.932-29.932V45.686
	c0-16.542-13.391-29.932-29.932-29.932C350.559,15.754,45.722,15.754,45.722,15.754z"/>
<path style="fill:#2AA0DA;" d="M89.832,243.397H45.722c-3.151,0-6.302-3.151-6.302-6.302V45.686c0-3.151,3.151-6.302,6.302-6.302
	h304.049c3.151,0,6.302,3.151,6.302,6.302v191.409c0,3.151-3.151,6.302-6.302,6.302H202.472l-112.64,59.865V243.397z"/>
<path style="fill:#FFFFFF;" d="M129.217,211.889l49.625-70.892V72.468c0-6.302-5.514-11.815-11.815-11.815h60.652
	c-6.302,0-11.815,5.514-11.815,11.815v68.529l49.625,70.892c4.726,6.302,0,14.966-7.877,14.966H137.094
	C129.217,227.643,124.491,218.978,129.217,211.889z"/>
<path style="fill:#E1E6E8;" d="M168.602,155.963h57.502l39.385,56.714c4.726,6.302,0,14.966-7.877,14.966H137.094
	c-7.877,0-12.603-8.665-7.877-14.966L168.602,155.963z"/>
<path style="fill:#FFFFFF;" d="M347.408,363.914h-11.815v-6.302c0-2.363,0-4.726,0.788-6.302c0.788-1.575,2.363-3.151,3.938-5.514
	l7.089-7.089c1.575-1.575,2.363-3.938,2.363-6.302s-0.788-4.726-2.363-6.302c-1.575-1.575-3.938-2.363-6.302-2.363
	c-2.363,0-4.726,0.788-6.302,2.363c-1.575,1.575-2.363,3.938-3.151,6.302h-12.603c0.788-6.302,3.151-11.028,7.089-14.178
	c3.938-3.151,9.452-5.514,14.966-5.514c6.302,0,11.028,1.575,14.966,4.726c3.938,3.151,5.514,7.877,5.514,13.391
	c0,3.938-0.788,7.089-3.151,10.24c-1.575,1.575-2.363,3.151-3.151,3.151c-0.788,0.788-1.575,1.575-2.363,2.363
	c-0.788,0.788-2.363,1.575-3.151,2.363c-0.788,0.788-1.575,1.575-1.575,2.363c-1.575,1.575-1.575,3.938-1.575,6.302v6.302H347.408z
	 M341.894,386.757c-2.363,0-3.938-0.788-5.514-2.363c-1.575-1.575-2.363-3.151-2.363-5.514c0-2.363,0.788-3.938,2.363-5.514
	c1.575-1.575,3.151-2.363,5.514-2.363s3.938,0.788,5.514,2.363c1.575,1.575,2.363,3.151,2.363,5.514
	c0,2.363-0.788,3.938-2.363,5.514C345.832,385.969,343.469,386.757,341.894,386.757z"/>
<g>
	<rect x="292.269" y="85.071" style="fill:#183651;" width="15.754" height="15.754"/>
	<rect x="292.269" y="123.668" style="fill:#183651;" width="15.754" height="15.754"/>
	<rect x="292.269" y="163.052" style="fill:#183651;" width="15.754" height="15.754"/>
	<rect x="87.469" y="85.071" style="fill:#183651;" width="15.754" height="15.754"/>
	<rect x="87.469" y="123.668" style="fill:#183651;" width="15.754" height="15.754"/>
	<rect x="87.469" y="163.052" style="fill:#183651;" width="15.754" height="15.754"/>
</g>
<g>
</g>
<g>
</g>
<g>
</g>
<g>
</g>
<g>
</g>
<g>
</g>
<g>
</g>
<g>
</g>
<g>
</g>
<g>
</g>
<g>
</g>
<g>
</g>
<g>
</g>
<g>
</g>
<g>
</g>
</svg>
